<svg width="48" height="48" viewBox="0 0 48 48" fill="none" xmlns="http://www.w3.org/2000/svg">
<rect width="48" height="48" rx="24" fill="white" fill-opacity="0.25"/>
<path d="M15.6602 22.7188C15.3542 22.7188 15.1003 22.6178 14.8984 22.416C14.6966 22.2077 14.5957 21.9538 14.5957 21.6543V16.3027C14.5957 15.7493 14.7487 15.3197 15.0547 15.0137C15.3672 14.7012 15.8034 14.5449 16.3633 14.5449H21.7734C22.0859 14.5449 22.3398 14.6458 22.5352 14.8477C22.737 15.0495 22.8379 15.3034 22.8379 15.6094C22.8379 15.9219 22.737 16.179 22.5352 16.3809C22.3333 16.5762 22.0794 16.6738 21.7734 16.6738H21.0215L17.9453 16.4688L20.3379 18.7441L23.1699 21.5566C23.2676 21.6608 23.3424 21.7812 23.3945 21.918C23.4531 22.0482 23.4824 22.1882 23.4824 22.3379C23.4824 22.6634 23.375 22.9271 23.1602 23.1289C22.9518 23.3307 22.6816 23.4316 22.3496 23.4316C22.0566 23.4316 21.8092 23.3307 21.6074 23.1289L18.7949 20.2871L16.5195 17.8945L16.7246 20.9609V21.6543C16.7246 21.9603 16.6237 22.2142 16.4219 22.416C16.2266 22.6178 15.9727 22.7188 15.6602 22.7188ZM26.2168 33.3633C25.9108 33.3633 25.6536 33.2624 25.4453 33.0605C25.2435 32.8587 25.1426 32.6048 25.1426 32.2988C25.1426 31.9928 25.2435 31.7389 25.4453 31.5371C25.6536 31.3353 25.9108 31.2344 26.2168 31.2344H26.9688L30.0547 31.4395L27.6426 29.1641L24.8301 26.3516C24.7194 26.2474 24.6348 26.1302 24.5762 26C24.5241 25.8633 24.498 25.7201 24.498 25.5703C24.498 25.2448 24.6055 24.9811 24.8203 24.7793C25.0352 24.5775 25.3053 24.4766 25.6309 24.4766C25.9368 24.4766 26.1875 24.5775 26.3828 24.7793L29.1855 27.6113L31.4707 30.0137L31.2656 26.9473V26.2539C31.2656 25.9479 31.3665 25.694 31.5684 25.4922C31.7702 25.2904 32.0208 25.1895 32.3203 25.1895C32.6263 25.1895 32.8802 25.2904 33.082 25.4922C33.2904 25.694 33.3945 25.9479 33.3945 26.2539V31.5957C33.3945 32.1556 33.2383 32.5885 32.9258 32.8945C32.6198 33.207 32.1868 33.3633 31.627 33.3633H26.2168Z" fill="white"/>
</svg>
