<svg width="48" height="48" viewBox="0 0 48 48" fill="none" xmlns="http://www.w3.org/2000/svg">
<rect width="48" height="48" rx="24" fill="#1D9BF0"/>
<g clip-path="url(#clip0_8_784)">
<path d="M33.479 19.0286C33.4935 19.2413 33.4935 19.4541 33.4935 19.6688C33.4935 26.211 28.5774 33.7561 19.5881 33.7561V33.7521C16.9326 33.7561 14.3323 32.9855 12.0968 31.5325C12.4829 31.5796 12.871 31.6031 13.26 31.6041C15.4606 31.6061 17.5984 30.858 19.3297 29.4806C17.2384 29.4404 15.4045 28.059 14.7639 26.0423C15.4964 26.1855 16.2513 26.1561 16.9703 25.957C14.6903 25.4904 13.05 23.461 13.05 21.1041V21.0413C13.7294 21.4247 14.49 21.6374 15.2681 21.661C13.1206 20.207 12.4587 17.3129 13.7555 15.0502C16.2368 18.1433 19.8977 20.0237 23.8277 20.2227C23.4339 18.5031 23.9719 16.7012 25.2416 15.4923C27.21 13.6178 30.3058 13.7139 32.1561 15.707C33.2506 15.4884 34.2997 15.0815 35.2597 14.5051C34.8948 15.6512 34.1313 16.6247 33.1113 17.2433C34.08 17.1276 35.0264 16.8649 35.9177 16.4639C35.2616 17.46 34.4352 18.3276 33.479 19.0286Z" fill="white"/>
</g>
<defs>
<clipPath id="clip0_8_784">
<rect width="24" height="20" fill="white" transform="translate(12 14)"/>
</clipPath>
</defs>
</svg>
