<svg width="48" height="48" viewBox="0 0 48 48" fill="none" xmlns="http://www.w3.org/2000/svg">
<rect width="48" height="48" rx="24" fill="white" fill-opacity="0.25"/>
<path d="M23.0137 34.5449C22.61 34.5449 22.2585 34.431 21.959 34.2031C21.666 33.9753 21.474 33.666 21.3828 33.2754L20.9824 31.5469L20.7188 31.459L19.2246 32.377C18.8861 32.5918 18.528 32.6732 18.1504 32.6211C17.7793 32.5755 17.4505 32.4095 17.1641 32.123L15.7969 30.7656C15.5039 30.4727 15.3346 30.1406 15.2891 29.7695C15.2435 29.3984 15.3281 29.0436 15.543 28.7051L16.4805 27.2109L16.3926 26.9668L14.6641 26.5664C14.2799 26.4753 13.9707 26.2799 13.7363 25.9805C13.5085 25.681 13.3945 25.3327 13.3945 24.9355V23.0117C13.3945 22.6146 13.5085 22.2695 13.7363 21.9766C13.9642 21.6771 14.2734 21.4785 14.6641 21.3809L16.373 20.9707L16.4707 20.707L15.5332 19.2129C15.3184 18.8809 15.2337 18.5293 15.2793 18.1582C15.3249 17.7871 15.4941 17.4551 15.7871 17.1621L17.1543 15.7949C17.4408 15.5085 17.7695 15.3424 18.1406 15.2969C18.5117 15.2448 18.8665 15.3229 19.2051 15.5312L20.709 16.459L20.9824 16.3516L21.3828 14.623C21.474 14.2389 21.666 13.9329 21.959 13.7051C22.2585 13.4707 22.61 13.3535 23.0137 13.3535H24.9961C25.3997 13.3535 25.748 13.4707 26.041 13.7051C26.334 13.9329 26.526 14.2389 26.6172 14.623L27.0176 16.3516L27.291 16.459L28.7949 15.5312C29.1335 15.3229 29.4883 15.2448 29.8594 15.2969C30.237 15.3424 30.5658 15.5085 30.8457 15.7949L32.2129 17.1621C32.4993 17.4551 32.6654 17.7871 32.7109 18.1582C32.763 18.5293 32.6816 18.8809 32.4668 19.2129L31.5293 20.707L31.6367 20.9707L33.3359 21.3809C33.7201 21.472 34.026 21.6673 34.2539 21.9668C34.4883 22.2663 34.6055 22.6146 34.6055 23.0117V24.9355C34.6055 25.3327 34.4883 25.681 34.2539 25.9805C34.026 26.2734 33.7201 26.4688 33.3359 26.5664L31.6172 26.9668L31.5195 27.2109L32.457 28.7051C32.6719 29.0436 32.7533 29.3984 32.7012 29.7695C32.6556 30.1406 32.4896 30.4727 32.2031 30.7656L30.8359 32.123C30.5495 32.4095 30.2174 32.5755 29.8398 32.6211C29.4688 32.6732 29.1139 32.5918 28.7754 32.377L27.2715 31.459L27.0176 31.5469L26.6172 33.2754C26.526 33.666 26.334 33.9753 26.041 34.2031C25.748 34.431 25.3997 34.5449 24.9961 34.5449H23.0137ZM23.2578 32.7773H24.752C24.9082 32.7773 24.9961 32.7025 25.0156 32.5527L25.6016 30.1504C25.9271 30.0788 26.2298 29.9844 26.5098 29.8672C26.7897 29.7435 27.0501 29.6068 27.291 29.457L29.3906 30.7461C29.5143 30.8307 29.6348 30.8177 29.752 30.707L30.7871 29.6621C30.8913 29.571 30.901 29.4538 30.8164 29.3105L29.5273 27.2207C29.6641 26.9863 29.791 26.7259 29.9082 26.4395C30.0319 26.153 30.1296 25.8568 30.2012 25.5508L32.6133 24.9746C32.763 24.9486 32.8379 24.8574 32.8379 24.7012V23.2363C32.8379 23.0866 32.763 22.9954 32.6133 22.9629L30.2109 22.3867C30.1328 22.0612 30.0286 21.752 29.8984 21.459C29.7747 21.166 29.6543 20.9154 29.5371 20.707L30.8262 18.6074C30.9173 18.4707 30.9076 18.347 30.7969 18.2363L29.7617 17.2207C29.651 17.1165 29.5273 17.1003 29.3906 17.1719L27.291 18.4512C27.0501 18.3145 26.7865 18.1875 26.5 18.0703C26.2201 17.9466 25.9206 17.8457 25.6016 17.7676L25.0156 15.3457C24.9961 15.196 24.9082 15.1211 24.752 15.1211H23.2578C23.0951 15.1211 23.0007 15.196 22.9746 15.3457L22.4082 17.748C22.0957 17.8262 21.7865 17.9303 21.4805 18.0605C21.181 18.1842 20.9206 18.3112 20.6992 18.4414L18.5996 17.1719C18.4694 17.1003 18.349 17.1133 18.2383 17.2109L17.1934 18.2363C17.0892 18.347 17.0794 18.4707 17.1641 18.6074L18.4531 20.707C18.3424 20.9154 18.222 21.166 18.0918 21.459C17.9616 21.752 17.8607 22.0612 17.7891 22.3867L15.3867 22.9629C15.237 22.9954 15.1621 23.0866 15.1621 23.2363V24.7012C15.1621 24.8574 15.237 24.9486 15.3867 24.9746L17.7891 25.541C17.8672 25.8535 17.9681 26.153 18.0918 26.4395C18.2155 26.7194 18.3424 26.9798 18.4727 27.2207L17.1738 29.3203C17.0957 29.457 17.1055 29.5742 17.2031 29.6719L18.248 30.707C18.3652 30.8177 18.4824 30.834 18.5996 30.7559L20.709 29.457C20.9499 29.6068 21.2135 29.7435 21.5 29.8672C21.793 29.9844 22.0924 30.0788 22.3984 30.1504L22.9746 32.5527C23.0007 32.7025 23.0951 32.7773 23.2578 32.7773ZM24 27.6602C23.3229 27.6602 22.7012 27.4941 22.1348 27.1621C21.5749 26.8236 21.1257 26.3743 20.7871 25.8145C20.4551 25.2546 20.2891 24.6328 20.2891 23.9492C20.2891 23.2721 20.4551 22.6536 20.7871 22.0938C21.1257 21.5339 21.5749 21.0879 22.1348 20.7559C22.7012 20.4238 23.3229 20.2578 24 20.2578C24.6836 20.2578 25.3053 20.4238 25.8652 20.7559C26.4251 21.0879 26.8711 21.5339 27.2031 22.0938C27.5352 22.6536 27.7012 23.2721 27.7012 23.9492C27.7012 24.6263 27.5352 25.248 27.2031 25.8145C26.8711 26.3809 26.4251 26.8301 25.8652 27.1621C25.3053 27.4941 24.6836 27.6602 24 27.6602ZM24 25.9805C24.3646 25.9805 24.6999 25.8893 25.0059 25.707C25.3118 25.5182 25.5527 25.2708 25.7285 24.9648C25.9108 24.6589 26.002 24.3203 26.002 23.9492C26.002 23.5781 25.9108 23.2428 25.7285 22.9434C25.5527 22.6374 25.3118 22.3932 25.0059 22.2109C24.6999 22.0286 24.3646 21.9375 24 21.9375C23.6289 21.9375 23.2904 22.0286 22.9844 22.2109C22.6784 22.3932 22.4342 22.6374 22.252 22.9434C22.0697 23.2428 21.9785 23.5781 21.9785 23.9492C21.9785 24.3268 22.0697 24.6686 22.252 24.9746C22.4342 25.2806 22.6784 25.5247 22.9844 25.707C23.2904 25.8893 23.6289 25.9805 24 25.9805Z" fill="white"/>
</svg>
