<svg width="20" height="20" viewBox="0 0 20 20" fill="none" xmlns="http://www.w3.org/2000/svg">
<path d="M10.0001 -0.000976562C15.5238 -0.000976562 20.0016 4.47687 20.0016 10.0006C20.0016 15.5243 15.5238 20.0021 10.0001 20.0021C4.47638 20.0021 -0.00146484 15.5243 -0.00146484 10.0006C-0.00146484 4.47687 4.47638 -0.000976562 10.0001 -0.000976562ZM10.0001 1.49902C5.30481 1.49902 1.49854 5.3053 1.49854 10.0006C1.49854 14.6959 5.30481 18.5021 10.0001 18.5021C14.6954 18.5021 18.5016 14.6959 18.5016 10.0006C18.5016 5.3053 14.6954 1.49902 10.0001 1.49902ZM6.46183 12.7839C7.31096 13.8616 8.60198 14.5021 10.0001 14.5021C11.3963 14.5021 12.6858 13.8633 13.535 12.7881C13.7918 12.463 14.2634 12.4076 14.5884 12.6644C14.9135 12.9211 14.9689 13.3927 14.7122 13.7178C13.5814 15.1495 11.8602 16.0021 10.0001 16.0021C8.13743 16.0021 6.4142 15.1472 5.2836 13.7122C5.02725 13.3869 5.08319 12.9153 5.40855 12.6589C5.73391 12.4026 6.20548 12.4585 6.46183 12.7839ZM7.00053 6.75121C7.6905 6.75121 8.24982 7.31054 8.24982 8.0005C8.24982 8.69047 7.6905 9.24979 7.00053 9.24979C6.31057 9.24979 5.75124 8.69047 5.75124 8.0005C5.75124 7.31054 6.31057 6.75121 7.00053 6.75121ZM13.0005 6.75121C13.6905 6.75121 14.2498 7.31054 14.2498 8.0005C14.2498 8.69047 13.6905 9.24979 13.0005 9.24979C12.3106 9.24979 11.7512 8.69047 11.7512 8.0005C11.7512 7.31054 12.3106 6.75121 13.0005 6.75121Z" fill="#D0CECC"/>
</svg>
