<svg width="12" height="18" viewBox="0 0 12 18" fill="none" xmlns="http://www.w3.org/2000/svg">
<path d="M0.0546875 8.67188V7.125C0.0546875 6.92188 0.127604 6.75 0.273438 6.60938C0.419271 6.46875 0.591146 6.39844 0.789062 6.39844C0.997396 6.39844 1.17448 6.46875 1.32031 6.60938C1.46615 6.75 1.53906 6.92188 1.53906 7.125V8.61719C1.53906 9.5026 1.72396 10.2786 2.09375 10.9453C2.46875 11.6068 2.99219 12.1198 3.66406 12.4844C4.33594 12.849 5.11458 13.0312 6 13.0312C6.89062 13.0312 7.66927 12.849 8.33594 12.4844C9.0026 12.1198 9.52344 11.6068 9.89844 10.9453C10.2734 10.2786 10.4609 9.5026 10.4609 8.61719V7.125C10.4609 6.92188 10.5339 6.75 10.6797 6.60938C10.8255 6.46875 11 6.39844 11.2031 6.39844C11.4062 6.39844 11.5781 6.46875 11.7188 6.60938C11.8646 6.75 11.9375 6.92188 11.9375 7.125V8.67188C11.9375 9.74479 11.7161 10.6927 11.2734 11.5156C10.8307 12.3385 10.2161 12.9974 9.42969 13.4922C8.64844 13.987 7.74479 14.2839 6.71875 14.3828V15.9844H9.58594C9.78906 15.9844 9.96354 16.0547 10.1094 16.1953C10.2552 16.3411 10.3281 16.5156 10.3281 16.7188C10.3281 16.9167 10.2552 17.0859 10.1094 17.2266C9.96354 17.3724 9.78906 17.4453 9.58594 17.4453H2.41406C2.21094 17.4453 2.03646 17.3724 1.89062 17.2266C1.74479 17.0859 1.67188 16.9167 1.67188 16.7188C1.67188 16.5156 1.74479 16.3411 1.89062 16.1953C2.03646 16.0547 2.21094 15.9844 2.41406 15.9844H5.28125V14.3828C4.25521 14.2839 3.34896 13.987 2.5625 13.4922C1.77604 12.9974 1.16146 12.3385 0.71875 11.5156C0.276042 10.6927 0.0546875 9.74479 0.0546875 8.67188ZM6 11.4141C5.47396 11.4141 5.0026 11.2917 4.58594 11.0469C4.17448 10.7969 3.84896 10.4531 3.60938 10.0156C3.36979 9.57812 3.25 9.07031 3.25 8.49219V3.23438C3.25 2.65625 3.36979 2.14844 3.60938 1.71094C3.84896 1.27344 4.17448 0.932292 4.58594 0.6875C5.0026 0.4375 5.47396 0.3125 6 0.3125C6.52604 0.3125 6.99479 0.4375 7.40625 0.6875C7.82292 0.932292 8.14844 1.27344 8.38281 1.71094C8.6224 2.14844 8.74219 2.65625 8.74219 3.23438V8.49219C8.74219 9.07031 8.6224 9.57812 8.38281 10.0156C8.14844 10.4531 7.82292 10.7969 7.40625 11.0469C6.99479 11.2917 6.52604 11.4141 6 11.4141Z" fill="white" fill-opacity="0.6"/>
</svg>
